<svg xmlns="http://www.w3.org/2000/svg" viewBox="0 0 728 648" width="728" height="648">
  <title>icon</title>
  <g>
    <path fill="#d6d6d6" d="M655.29,358.07c.13-1.09.12-2.2,0-3.29v-.05h0c-.58-5.05-3.77-9.81-9.36-11.82l-230.9-83.04L349.4,20.99c-2.89-10.51-11.91-17.38-21.86-18.32-6.81-3.41-15.14-3.74-22.61.08L21.59,147.3c-16.4,8.37-24.86,26.93-20.42,44.8l65.33,261.97,242.06,95.19c15.44,6.08,32.81,4.81,47.2-3.47l292.45-168.27c5.39-3.1,7.66-8.7,7.08-13.99v-5.45Z"/>
    <path fill="#f9f9f9" d="M415.02,259.86L73.03,447.72l235.54,92.79c15.44,6.08,32.81,4.81,47.2-3.47l292.45-168.27c10.56-6.08,9.18-21.74-2.29-25.86l-230.9-83.04Z"/>
    <path fill="#f5f5f5" d="M313.86,5.31L24.55,152.91c-12.9,6.58-19.56,21.19-16.06,35.24l64.54,259.57,341.99-187.85L349.4,20.99c-4.2-15.3-21.4-22.89-35.54-15.68Z"/>
    <path fill="#fff" d="M386.73,9.89L93.84,159.31c-12.77,6.52-20.81,19.64-20.81,33.98v254.43l341.99-187.85V27.22c0-14.53-15.35-23.93-28.3-17.33Z"/>
    <polygon fill="#e6e6e6" points="188.5 398.24 379.26 469.62 453.63 426.83 264.97 356.23 188.5 398.24"/>
    <polygon fill="#e6e6e6" points="99.55 447.1 288.82 521.66 369.86 475.03 178.84 403.55 99.55 447.1"/>
    <polygon fill="#e6e6e6" points="606.54 338.85 419.81 271.18 352.65 308.07 541.26 376.41 606.54 338.85"/>
    <polygon fill="#e6e6e6" points="273.38 351.62 461.8 422.13 533.65 380.78 344.83 312.37 273.38 351.62"/>
    <polygon fill="#ebebeb" points="84.76 276.57 84.76 429.65 163.73 386.27 163.73 236.28 84.76 276.57"/>
    <polygon fill="#ebebeb" points="172.46 231.35 172.46 381.48 250.32 338.71 250.32 191.63 172.46 231.35"/>
    <polygon fill="#ebebeb" points="258.58 187.89 258.58 334.17 329.53 295.2 329.53 151.69 258.58 187.89"/>
    <polygon fill="#ebebeb" points="404.63 113.38 337.35 147.7 337.35 290.9 404.63 253.95 404.63 113.38"/>
    <g fill="#ebebeb">
      <polygon points="366.86 64.11 366.86 72.27 371.05 70.12 371.05 61.97 366.86 64.11"/>
      <polygon points="375.25 59.83 375.25 67.98 379.45 65.84 379.45 57.69 375.25 59.83"/>
      <polygon points="358.46 68.38 358.46 76.55 362.66 74.41 362.66 66.24 358.46 68.38"/>
      <polygon points="400.43 55.13 404.63 52.99 404.63 44.87 400.43 47.01 400.43 55.13"/>
      <polygon points="350.07 72.65 350.07 80.83 354.27 78.69 354.27 70.52 350.07 72.65"/>
      <polygon points="274.53 111.12 274.53 119.39 278.73 117.25 278.73 108.98 274.53 111.12"/>
      <polygon points="299.71 98.3 299.71 106.54 303.91 104.4 303.91 96.16 299.71 98.3"/>
      <polygon points="383.64 55.56 383.64 63.7 387.84 61.56 387.84 53.42 383.64 55.56"/>
      <polygon points="392.04 51.28 392.04 59.41 396.23 57.27 396.23 49.15 392.04 51.28"/>
      <polygon points="282.92 106.85 282.92 115.11 287.12 112.96 287.12 104.71 282.92 106.85"/>
      <polygon points="308.1 94.02 308.1 102.25 312.3 100.11 312.3 91.89 308.1 94.02"/>
      <polygon points="291.32 102.57 291.32 110.82 295.51 108.68 295.51 100.43 291.32 102.57"/>
      <polygon points="333.28 81.2 333.28 89.4 337.48 87.26 337.48 79.06 333.28 81.2"/>
      <polygon points="341.68 76.93 341.68 85.12 345.87 82.98 345.87 74.79 341.68 76.93"/>
      <polygon points="324.89 85.48 324.89 93.69 329.09 91.54 329.09 83.34 324.89 85.48"/>
      <polygon points="316.5 89.75 316.5 97.97 320.69 95.83 320.69 87.61 316.5 89.75"/>
      <polygon points="320.69 83.9 320.69 75.67 316.5 77.81 316.5 86.04 320.69 83.9"/>
      <polygon points="312.3 88.18 312.3 79.95 308.1 82.09 308.1 90.33 312.3 88.18"/>
      <polygon points="337.48 75.32 337.48 67.12 333.28 69.26 333.28 77.47 337.48 75.32"/>
      <polygon points="329.09 79.61 329.09 71.4 324.89 73.53 324.89 81.75 329.09 79.61"/>
      <polygon points="295.51 96.76 295.51 88.5 291.32 90.64 291.32 98.9 295.51 96.76"/>
      <polygon points="400.43 43.17 404.63 41.02 404.63 32.91 400.43 35.05 400.43 43.17"/>
      <polygon points="303.91 92.47 303.91 84.23 299.71 86.36 299.71 94.62 303.91 92.47"/>
      <polygon points="345.87 71.04 345.87 62.84 341.68 64.98 341.68 73.18 345.87 71.04"/>
      <polygon points="387.84 49.6 387.84 41.46 383.64 43.6 383.64 51.74 387.84 49.6"/>
      <polygon points="396.23 45.31 396.23 37.18 392.04 39.32 392.04 47.45 396.23 45.31"/>
      <polygon points="379.45 53.89 379.45 45.74 375.25 47.88 375.25 56.03 379.45 53.89"/>
      <polygon points="354.27 66.75 354.27 58.57 350.07 60.71 350.07 68.89 354.27 66.75"/>
      <polygon points="371.05 58.17 371.05 50.01 366.86 52.15 366.86 60.32 371.05 58.17"/>
      <polygon points="362.66 62.46 362.66 54.29 358.46 56.43 358.46 64.6 362.66 62.46"/>
      <polygon points="151.82 203.3 84.76 238.25 84.76 247 151.82 211.89 151.82 203.3"/>
      <polygon points="151.82 192.13 84.76 227.08 84.76 235.84 151.82 200.73 151.82 192.13"/>
      <polygon points="151.82 180.97 84.76 215.92 84.76 224.67 151.82 189.56 151.82 180.97"/>
      <polygon points="123.19 184.72 84.76 204.75 84.76 213.51 123.19 193.38 123.19 184.72"/>
    </g>
    <!-- Coin1 -->
    <ellipse fill="#ffeb85" cx="637.83" cy="480.05" rx="90.38" ry="46.13"/>
    <ellipse fill="#ffd953" cx="637.83" cy="479.26" rx="80.26" ry="38.44"/>
    <path fill="#ffb709" d="M637.83,452.57c40.15,0,73.42,14.12,79.33,32.56.61-1.92.93-3.88.93-5.88,0-21.23-35.93-38.44-80.26-38.44s-80.26,17.21-80.26,38.44c0,2,.32,3.96.93,5.88,5.91-18.44,39.17-32.56,79.33-32.56Z"/>
    <path fill="#ffb709" d="M681.4,489.28l-1.99-8.29h-9.1l5.38-14.5h-9.23l-6.19,14.5h-11.39l-6.39-14.5h-9.23s-.06,0-.06,0l-6.39,14.5h-11.39l-6.19-14.5h-9.23l5.38,14.5h-9.1l-1.99,8.29h14.17l6.68,18.03h11.59l6.94-18.03h8.37l6.94,18.03h11.59l6.68-18.03h14.17ZM621,494.12l-2.07-4.85h4.21l-2.14,4.85ZM636.83,480.99l1-2.59,1,2.59h-2ZM654.65,494.12l-2.14-4.85h4.21l-2.07,4.85Z"/>
    <path fill="#ffe264" d="M637.83,526.18c-49.91,0-90.38-20.65-90.38-46.13v41.38c0,22.65,40.46,41.01,90.38,41.01s90.38-18.36,90.38-41.01v-41.38c0,25.48-40.46,46.13-90.38,46.13Z"/>
    <path fill="#ffcc42" d="M547.45,480.05v41.38c0,5.64,2.51,11.01,7.04,15.89v-39.39c-4.53-5.5-7.04-11.54-7.04-17.88Z"/>
    <path fill="#ffc62c" d="M681.4,557.36v-36.89c-12.92,3.64-27.77,5.71-43.57,5.71-9.83,0-19.29-.8-28.14-2.28v36.51c8.86,1.32,18.32,2.03,28.14,2.03,15.8,0,30.65-1.84,43.57-5.07Z"/>
    <path fill="#ffc62c" d="M728.2,521.43v-41.38c0,7.65-3.66,14.87-10.12,21.22v39.02c6.46-5.65,10.12-12.06,10.12-18.87Z"/>
    <path fill="#ffb709" d="M681.4,557.36c15.64-3.91,28.45-9.86,36.69-17.07v-39.02c-8.24,8.1-21.05,14.8-36.69,19.2v36.89Z"/>
    <!-- Coin2 -->
    <ellipse fill="#ffeb85" cx="522.92" cy="565.82" rx="90.38" ry="46.13"/>
    <ellipse fill="#ffd953" cx="522.92" cy="565.03" rx="80.26" ry="38.44"/>
    <path fill="#ffb709" d="M522.92,538.34c40.15,0,73.42,14.12,79.33,32.56.61-1.92.93-3.88.93-5.88,0-21.23-35.93-38.44-80.26-38.44s-80.26,17.21-80.26,38.44c0,2,.32,3.96.93,5.88,5.91-18.44,39.17-32.56,79.33-32.56Z"/>
    <path fill="#ffe264" d="M522.92,611.95c-49.91,0-90.38-20.65-90.38-46.13v41.38c0,22.65,40.46,41.01,90.38,41.01s90.38-18.36,90.38-41.01v-41.38c0,25.48-40.46,46.13-90.38,46.13Z"/>
    <path fill="#ffcc42" d="M439.59,623.09c-4.53-4.89-7.04-10.26-7.04-15.89v-41.38c0,6.34,2.51,12.38,7.04,17.88"/>
    <path fill="#ffc62c" d="M603.18,587.04c6.46-6.35,10.12-13.57,10.12-21.22v41.38c0,6.8-3.66,13.22-10.12,18.87"/>
    <path fill="#ffc62c" d="M566.49,643.13c-12.92,3.23-27.77,5.07-43.57,5.07-9.83,0-19.29-.71-28.14-2.03"/>
    <path fill="#ffc62c" d="M566.49,643.13v-36.89c-12.92,3.64-27.77,5.71-43.57,5.71-9.83,0-19.29-.8-28.14-2.28v36.51c8.86,1.32,18.32,2.03,28.14,2.03,15.8,0,30.65-1.84,43.57-5.07Z"/>
    <path fill="#ffb709" d="M603.18,626.06c-8.24,7.2-21.05,13.15-36.69,17.07"/>
    <path fill="#ffb709" d="M566.49,643.13c15.64-3.91,28.45-9.86,36.69-17.07v-39.02c-8.24,8.1-21.05,14.8-36.69,19.2v36.89Z"/>
    <path fill="#ffb709" d="M527.57,566.19v-9.06c7.72.78,11.97,3.36,12.42,4.5,0-.02-.03-.09-.03-.18h9.3c0-8.01-10.29-12.65-21.7-13.64v-5.83h-9.3v5.83c-11.4.99-21.7,5.63-21.7,13.64s10.29,12.65,21.7,13.64v9.06c-7.72-.78-11.97-3.36-12.42-4.5,0,.02.03.09.03.18h-9.3c0,8.01,10.29,12.65,21.7,13.64v5.83h9.3v-5.83c11.4-.99,21.7-5.63,21.7-13.64s-10.29-12.65-21.7-13.64ZM505.95,561.45c.79-1.21,4.99-3.57,12.33-4.32v8.63c-7.34-.74-11.54-3.11-12.33-4.32ZM527.57,584.15v-8.63c7.34.74,11.54,3.11,12.33,4.32-.79,1.21-4.99,3.57-12.33,4.32Z"/>
    <!-- Coin3 -->
    <ellipse fill="#ffeb85" cx="613.3" cy="432.76" rx="90.38" ry="46.13"/>
    <ellipse fill="#ffd953" cx="613.3" cy="431.97" rx="80.26" ry="38.44"/>
    <path fill="#ffb709" d="M613.3,405.28c40.15,0,73.42,14.12,79.33,32.56.61-1.92.93-3.88.93-5.88,0-21.23-35.93-38.44-80.26-38.44s-80.26,17.21-80.26,38.44c0,2,.32,3.96.93,5.88,5.91-18.44,39.17-32.56,79.33-32.56Z"/>
    <path fill="#ffb709" d="M656.87,441.99l-1.99-8.29h-9.1l5.38-14.5h-9.23l-6.19,14.5h-11.39l-6.39-14.5h-9.29l-6.39,14.5h-11.39l-6.19-14.5h-9.23l5.38,14.5h-9.1l-1.99,8.29h14.17l6.68,18.03h11.59l6.94-18.03h8.37l6.94,18.03h11.59l6.68-18.03h14.17ZM596.47,446.84l-2.07-4.85h4.21l-2.14,4.85ZM612.3,433.7l1-2.59,1,2.59h-2ZM630.13,446.84l-2.14-4.85h4.21l-2.07,4.85Z"/>
    <path fill="#ffe264" d="M613.3,478.9c-49.91,0-90.38-20.65-90.38-46.13v41.38c0,22.65,40.46,41.01,90.38,41.01s90.38-18.36,90.38-41.01v-41.38c0,25.48-40.46,46.13-90.38,46.13Z"/>
    <path fill="#ffcc42" d="M522.92,432.76v41.38c0,5.64,2.51,11.01,7.04,15.89v-39.39c-4.53-5.5-7.04-11.54-7.04-17.88Z"/>
    <path fill="#ffc62c" d="M656.87,510.08v-36.89c-12.92,3.64-27.77,5.71-43.57,5.71-9.83,0-19.29-.8-28.14-2.28v36.51c8.86,1.32,18.32,2.03,28.14,2.03,15.8,0,30.65-1.84,43.57-5.07Z"/>
    <path fill="#ffc62c" d="M703.68,474.14v-41.38c0,7.65-3.66,14.87-10.12,21.22v39.02c6.46-5.65,10.12-12.06,10.12-18.87Z"/>
    <path fill="#ffb709" d="M656.87,510.08c15.64-3.91,28.45-9.86,36.69-17.07v-39.02c-8.24,8.1-21.05,14.8-36.69,19.2v36.89Z"/>
    <!-- Star -->
    <path fill="#ffc62c" d="M551.77,80.39c-18.99,6.98-23.59,12.63-29.27,35.95-5.68-23.32-10.28-28.97-29.27-35.95,18.99-6.98,23.59-12.63,29.27-35.95,5.68,23.32,10.28,28.97,29.27,35.95Z"/>
    <path fill="#ffe264" d="M494.61,131.42c-9.22,3.39-11.46,6.13-14.22,17.46-2.76-11.33-5-14.07-14.22-17.46,9.22-3.39,11.46-6.13,14.22-17.46,2.76,11.33,5,14.07,14.22,17.46Z"/>
  </g>
</svg>